<svg height="526" width="720" xmlns="http://www.w3.org/2000/svg">
<rect height="526" fill="#555" width="720"></rect>
<text fill="#7f7" font-family="Courier New" font-size="12" xml:space="preserve">
<tspan x="10" y="26">2 megabytes installed</tspan>
<tspan x="10" y="42"></tspan>
<tspan x="10" y="58">node_modules</tspan>
<tspan x="10" y="74">└─┬ copyfiles@1.2.0 </tspan>
<tspan x="10" y="90">  ├─┬ glob@7.1.1 </tspan>
<tspan x="10" y="106">  │ ├── fs.realpath@1.0.0 </tspan>
<tspan x="10" y="122">  │ ├─┬ inflight@1.0.6 </tspan>
<tspan x="10" y="138">  │ │ └── wrappy@1.0.2 </tspan>
<tspan x="10" y="154">  │ ├── inherits@2.0.3 </tspan>
<tspan x="10" y="170">  │ ├── once@1.4.0 </tspan>
<tspan x="10" y="186">  │ └── path-is-absolute@1.0.1 </tspan>
<tspan x="10" y="202">  ├── ltcdr@2.2.1 </tspan>
<tspan x="10" y="218">  ├─┬ minimatch@3.0.3 </tspan>
<tspan x="10" y="234">  │ └─┬ brace-expansion@1.1.7 </tspan>
<tspan x="10" y="250">  │   ├── balanced-match@0.4.2 </tspan>
<tspan x="10" y="266">  │   └── concat-map@0.0.1 </tspan>
<tspan x="10" y="282">  ├─┬ mkdirp@0.5.1 </tspan>
<tspan x="10" y="298">  │ └── minimist@0.0.8 </tspan>
<tspan x="10" y="314">  ├─┬ noms@0.0.0 </tspan>
<tspan x="10" y="330">  │ └─┬ readable-stream@1.0.34 </tspan>
<tspan x="10" y="346">  │   ├── core-util-is@1.0.2 </tspan>
<tspan x="10" y="362">  │   ├── isarray@0.0.1 </tspan>
<tspan x="10" y="378">  │   └── string_decoder@0.10.31 </tspan>
<tspan x="10" y="394">  └─┬ through2@2.0.3 </tspan>
<tspan x="10" y="410">    ├─┬ readable-stream@2.2.9 </tspan>
<tspan x="10" y="426">    │ ├── buffer-shims@1.0.0 </tspan>
<tspan x="10" y="442">    │ ├── isarray@1.0.0 </tspan>
<tspan x="10" y="458">    │ ├── process-nextick-args@1.0.7 </tspan>
<tspan x="10" y="474">    │ ├── string_decoder@1.0.0 </tspan>
<tspan x="10" y="490">    │ └── util-deprecate@1.0.2 </tspan>
<tspan x="10" y="506">    └── xtend@4.0.1</tspan>
</text>
</svg>
